<?xml version="1.0" encoding="utf-8"?>
<svg xmlns="http://www.w3.org/2000/svg" version="1.1" width="420" height="60">
  <title>Airlock</title>
  <desc>
    Airlock diagram.
  </desc>

  <defs>
    <g id="Pad">
      <rect width="18" height="7.5" x="0" y="0" fill="#909090"/>
      <rect width="16" height="4" x="1" y="2.5" fill="whitesmoke"/>
      <rect width="5.3" height="1" x="1" y="5.5" fill="red"/>
      <rect width="5.3" height="1" x="11.7" y="5.5" fill="green"/>
      
      <line x1="6.3" y1="0" x2="6.3" y2="7.5" stroke-width="0.3" stroke="#909090"/>
      <line x1="11.7" y1="0" x2="11.7" y2="7.5" stroke-width="0.3" stroke="#909090"/>

      <line x1="0" y1="3.5" x2="18" y2="3.5" stroke-width="0.1" stroke="#909090"/>
      <line x1="0" y1="4.5" x2="18" y2="4.5" stroke-width="0.1" stroke="#909090"/>
      <line x1="0" y1="5.5" x2="18" y2="5.5" stroke-width="0.1" stroke="#909090"/>
    </g>
  </defs>
  
  <!-- Connectors start -->
  <rect width="13" height="13" x="143.5" y="0" fill="lightgrey"/>
  <rect width="13" height="13" x="263.5" y="0" fill="lightgrey"/>
  <path d="M 270 2 l -3 5 h 3 v 4 l 3 -5 h -3 v -4" fill="yellow"/>
  <rect width="4" height="4" x="144.5" y="2" fill="green"/>
  <rect width="4" height="4" x="151.5" y="2" fill="green"/>
  <rect width="4" height="4" x="148" y="8" fill="green"/>
  <path d="M 146.5 6 v 1 h 6.5 v -1 M 150 8 v -1" stroke-width="0.3" stroke="green" fill="transparent"/>
  <!-- Connectors end -->

  <!-- Funitures start -->
  <rect width="21.5" height="35" x="135" y="12.5" fill="whitesmoke"/>
  <rect width="21.5" height="35" x="263.5" y="12.5" fill="whitesmoke"/>
  <rect width="200" height="30" x="110" y="15" fill="darkgrey"/>
  <!-- Funitures end -->

  <!-- Pads start -->
  <use href="#Pad" transform="rotate(0 122,45)" x="113" y="45"/>
  <use href="#Pad" transform="rotate(180 298,15)" x="289" y="15"/>
  <!-- Pads end -->

  <!-- Structure start -->
  <rect width="410" height="20" x="5" y="20" fill="lightgrey"/>
  <line x1="60" y1="20" x2="60" y2="40" stroke-width="0.3" stroke="darkgrey"/>
  <line x1="360" y1="20" x2="360" y2="40" stroke-width="0.3" stroke="darkgrey"/>
  <rect width="415" height="12" x="2.5" y="24" fill="darkgrey"/>
  <line x1="60" y1="24" x2="60" y2="36" stroke-width="0.3" stroke="#808080"/>
  <line x1="360" y1="24" x2="360" y2="36" stroke-width="0.3" stroke="#808080"/>
  <rect width="240" height="25" x="90" y="17.5" fill="grey"/>
  <!-- Structure end -->

</svg>
