<?xml version="1.0" encoding="utf-8"?>
<svg xmlns="http://www.w3.org/2000/svg" version="1.1" width="60" height="60">
  <title>Gas Sensor</title>
  <desc>
    Gas Sensor diagram.
  </desc>

  <!-- Base structure start -->
  <path d="M 10 30 L 25 60 L 35 60 L 50 30" fill="grey"/>
  <circle cx="30" cy="30" r="20" fill="grey"/>
  <circle cx="30" cy="30" r="19" fill="lightgrey"/>
  <circle cx="30" cy="30" r="17" fill="grey"/>
  <!-- Base structure end -->

  <!-- Vents start -->
  <path d="M 28 17 L 30 30 L 32 17" transform="rotate(0 30,30)" fill="#656565"/>
  <path d="M 28 17 L 30 30 L 32 17" transform="rotate(40 30,30)" fill="#656565"/>
  <path d="M 28 17 L 30 30 L 32 17" transform="rotate(80 30,30)" fill="#656565"/>
  <path d="M 28 17 L 30 30 L 32 17" transform="rotate(120 30,30)" fill="#656565"/>
  <path d="M 28 17 L 30 30 L 32 17" transform="rotate(160 30,30)" fill="#656565"/>
  <path d="M 28 17 L 30 30 L 32 17" transform="rotate(200 30,30)" fill="#656565"/>
  <path d="M 28 17 L 30 30 L 32 17" transform="rotate(240 30,30)" fill="#656565"/>
  <path d="M 28 17 L 30 30 L 32 17" transform="rotate(280 30,30)" fill="#656565"/>
  <path d="M 28 17 L 30 30 L 32 17" transform="rotate(320 30,30)" fill="#656565"/>
  
  <line x1="28" y1="17" x2="32" y2="17" transform="rotate(0 30,30)" stroke="#505050"/>
  <line x1="28" y1="17" x2="32" y2="17" transform="rotate(40 30,30)" stroke="#505050"/>
  <line x1="28" y1="17" x2="32" y2="17" transform="rotate(80 30,30)" stroke="#505050"/>
  <line x1="28" y1="17" x2="32" y2="17" transform="rotate(120 30,30)" stroke="#505050"/>
  <line x1="28" y1="17" x2="32" y2="17" transform="rotate(160 30,30)" stroke="#505050"/>
  <line x1="28" y1="17" x2="32" y2="17" transform="rotate(200 30,30)" stroke="#505050"/>
  <line x1="28" y1="17" x2="32" y2="17" transform="rotate(240 30,30)" stroke="#505050"/>
  <line x1="28" y1="17" x2="32" y2="17" transform="rotate(280 30,30)" stroke="#505050"/>
  <line x1="28" y1="17" x2="32" y2="17" transform="rotate(320 30,30)" stroke="#505050"/>
  
  <circle cx="30" cy="30" r="7" fill="grey"/>
  <!-- Vents end -->
</svg>
