<?xml version="1.0" encoding="utf-8"?>
<svg xmlns="http://www.w3.org/2000/svg" version="1.1" width="60" height="60">
  <title>IC Housing</title>
  <desc>
    IC Housing diagram.
  </desc>

  <!-- Background -->
  <rect width="60" height="60" x="0" y="0" fill="#505050"/>

  <!-- External pins start -->
  <rect width="4" height="57" x="7" y="1.5" fill="whitesmoke"/>
  <rect width="4" height="57" x="13" y="1.5" fill="whitesmoke"/>
  <rect width="4" height="57" x="19" y="1.5" fill="whitesmoke"/>
  <rect width="4" height="57" x="25" y="1.5" fill="whitesmoke"/>
  <rect width="4" height="57" x="31" y="1.5" fill="whitesmoke"/>
  <rect width="4" height="57" x="37" y="1.5" fill="whitesmoke"/>
  <rect width="4" height="57" x="43" y="1.5" fill="whitesmoke"/>
  <rect width="4" height="57" x="49" y="1.5" fill="whitesmoke"/>

  <rect width="4" height="55" x="7" y="2.5" fill="white"/>
  <rect width="4" height="55" x="13" y="2.5" fill="white"/>
  <rect width="4" height="55" x="19" y="2.5" fill="white"/>
  <rect width="4" height="55" x="25" y="2.5" fill="white"/>
  <rect width="4" height="55" x="31" y="2.5" fill="white"/>
  <rect width="4" height="55" x="37" y="2.5" fill="white"/>
  <rect width="4" height="55" x="43" y="2.5" fill="white"/>
  <rect width="4" height="55" x="49" y="2.5" fill="white"/>

  <rect width="57" height="4" x="1.5" y="7" fill="whitesmoke"/>
  <rect width="57" height="4" x="1.5" y="13" fill="whitesmoke"/>
  <rect width="57" height="4" x="1.5" y="19" fill="whitesmoke"/>
  <rect width="57" height="4" x="1.5" y="25" fill="whitesmoke"/>
  <rect width="57" height="4" x="1.5" y="31" fill="whitesmoke"/>
  <rect width="57" height="4" x="1.5" y="37" fill="whitesmoke"/>
  <rect width="57" height="4" x="1.5" y="43" fill="whitesmoke"/>
  <rect width="57" height="4" x="1.5" y="49" fill="whitesmoke"/>

  <rect width="55" height="4" x="2.5" y="7" fill="white"/>
  <rect width="55" height="4" x="2.5" y="13" fill="white"/>
  <rect width="55" height="4" x="2.5" y="19" fill="white"/>
  <rect width="55" height="4" x="2.5" y="25" fill="white"/>
  <rect width="55" height="4" x="2.5" y="31" fill="white"/>
  <rect width="55" height="4" x="2.5" y="37" fill="white"/>
  <rect width="55" height="4" x="2.5" y="43" fill="white"/>
  <rect width="55" height="4" x="2.5" y="49" fill="white"/>
  <!-- External pins end -->

  <!-- Main chip -->
  <rect width="50" height="50" x="5" y="5" fill="grey"/>

  <!-- Head -->
  <circle cx="13" cy="11" r="2" fill="red"/>
  <text x="20" y="10" font-size="5" fill="white">CIRCUIT</text>
  <text x="19" y="15" font-size="5" fill="white">HOUSING</text>

  <!-- Device connectors start -->
  <path d="M 9 20 l 4 0 l 2 3.46 l -2 3.46 l -4 0 l -2 -3.46 l 2 -3.46" fill="lightgrey"/>
  <rect width="2" height="7" x="10" y="20" fill="darkgrey"/>
  <text x="9.5" y="19" font-size="3" fill="white" font-family="monospace">D0</text>

  <path d="M 9 33 l 4 0 l 2 3.46 l -2 3.46 l -4 0 l -2 -3.46 l 2 -3.46" fill="lightgrey"/>
  <rect width="2" height="7" x="10" y="33" fill="darkgrey"/>
  <text x="9.5" y="32" font-size="3" fill="white" font-family="monospace">D1</text>

  <path d="M 9 46 l 4 0 l 2 3.46 l -2 3.46 l -4 0 l -2 -3.46 l 2 -3.46" fill="lightgrey"/>
  <rect width="2" height="7" x="10" y="46" fill="darkgrey"/>
  <text x="9.5" y="45" font-size="3" fill="white" font-family="monospace">D2</text>

  <path d="M 47 20 l 4 0 l 2 3.46 l -2 3.46 l -4 0 l -2 -3.46 l 2 -3.46" fill="lightgrey"/>
  <rect width="2" height="7" x="48" y="20" fill="darkgrey"/>
  <text x="47.5" y="19" font-size="3" fill="white" font-family="monospace">D3</text>

  <path d="M 47 33 l 4 0 l 2 3.46 l -2 3.46 l -4 0 l -2 -3.46 l 2 -3.46" fill="lightgrey"/>
  <rect width="2" height="7" x="48" y="33" fill="darkgrey"/>
  <text x="47.5" y="32" font-size="3" fill="white" font-family="monospace">D4</text>

  <path d="M 47 46 l 4 0 l 2 3.46 l -2 3.46 l -4 0 l -2 -3.46 l 2 -3.46" fill="lightgrey"/>
  <rect width="2" height="7" x="48" y="46" fill="darkgrey"/>
  <text x="47.5" y="45" font-size="3" fill="white" font-family="monospace">D5</text>
  <!-- Device connectors end -->

  <!-- IC Housing -->
  <rect width="26" height="33" x="17" y="17" fill="black"/>

  <!-- External IC pins start -->
  <rect width="20" height="2" x="20" y="22" fill="white"/>
  <rect width="20" height="2" x="20" y="29" fill="white"/>
  <rect width="20" height="2" x="20" y="37" fill="white"/>
  <rect width="20" height="2" x="20" y="44" fill="white"/>
  <!-- External IC pins end -->

  <!-- IC chip start -->
  <rect width="15" height="30" x="22.5" y="18.5" fill="grey"/>
  <path d="M 26.5 18.5 q 0 3.5 3.5 3.5 q 3.5 0 3.5 -3.5" fill="#505050"/>
  <path d="M 26.5 48.5 q 0 -3.5 3.5 -3.5 q 3.5 0 3.5 3.5" fill="#505050"/>
  <text x="28" y="40" transform="rotate(-90 28,40)" font-size="3" fill="white" font-family="monospace">RECATEK</text>
  <text x="32" y="40" transform="rotate(-90 32,40)" font-size="4" fill="white" font-family="monospace">IC</text>
  <text x="32" y="35" transform="rotate(-90 32,35)" font-size="4" fill="darkred" font-family="monospace">10</text>
  <!-- IC chip end -->

</svg>
