<?xml version="1.0" encoding="utf-8"?>
<svg xmlns="http://www.w3.org/2000/svg" version="1.1" width="60" height="60">
  <title>IC Housing</title>
  <desc>
    IC Housing diagram.
  </desc>

  <rect width="60" height="60" x="0" y="0" fill="black"/>

  <rect width="4" height="57" x="7" y="1.5" fill="whitesmoke"/>
  <rect width="4" height="57" x="13" y="1.5" fill="whitesmoke"/>
  <rect width="4" height="57" x="19" y="1.5" fill="whitesmoke"/>
  <rect width="4" height="57" x="25" y="1.5" fill="whitesmoke"/>
  <rect width="4" height="57" x="31" y="1.5" fill="whitesmoke"/>
  <rect width="4" height="57" x="37" y="1.5" fill="whitesmoke"/>
  <rect width="4" height="57" x="43" y="1.5" fill="whitesmoke"/>
  <rect width="4" height="57" x="49" y="1.5" fill="whitesmoke"/>

  <rect width="4" height="55" x="7" y="2.5" fill="white"/>
  <rect width="4" height="55" x="13" y="2.5" fill="white"/>
  <rect width="4" height="55" x="19" y="2.5" fill="white"/>
  <rect width="4" height="55" x="25" y="2.5" fill="white"/>
  <rect width="4" height="55" x="31" y="2.5" fill="white"/>
  <rect width="4" height="55" x="37" y="2.5" fill="white"/>
  <rect width="4" height="55" x="43" y="2.5" fill="white"/>
  <rect width="4" height="55" x="49" y="2.5" fill="white"/>

  <rect width="57" height="4" x="1.5" y="7" fill="whitesmoke"/>
  <rect width="57" height="4" x="1.5" y="13" fill="whitesmoke"/>
  <rect width="57" height="4" x="1.5" y="19" fill="whitesmoke"/>
  <rect width="57" height="4" x="1.5" y="25" fill="whitesmoke"/>
  <rect width="57" height="4" x="1.5" y="31" fill="whitesmoke"/>
  <rect width="57" height="4" x="1.5" y="37" fill="whitesmoke"/>
  <rect width="57" height="4" x="1.5" y="43" fill="whitesmoke"/>
  <rect width="57" height="4" x="1.5" y="49" fill="whitesmoke"/>

  <rect width="55" height="4" x="2.5" y="7" fill="white"/>
  <rect width="55" height="4" x="2.5" y="13" fill="white"/>
  <rect width="55" height="4" x="2.5" y="19" fill="white"/>
  <rect width="55" height="4" x="2.5" y="25" fill="white"/>
  <rect width="55" height="4" x="2.5" y="31" fill="white"/>
  <rect width="55" height="4" x="2.5" y="37" fill="white"/>
  <rect width="55" height="4" x="2.5" y="43" fill="white"/>
  <rect width="55" height="4" x="2.5" y="49" fill="white"/>

  <rect width="50" height="50" x="5" y="5" fill="grey"/>

  <circle cx="13" cy="11" r="2" fill="red"/>

  <path d="M 9 20 l 4 0 l 2 3.46 l -2 3.46 l -4 0 l -2 -3.46 l 2 -3.46" fill="lightgrey"/>
  <rect width="2" height="7" x="10" y="20" fill="darkgrey"/>

  <path d="M 9 33 l 4 0 l 2 3.46 l -2 3.46 l -4 0 l -2 -3.46 l 2 -3.46" fill="lightgrey"/>
  <rect width="2" height="7" x="10" y="33" fill="darkgrey"/>

  <path d="M 9 45 l 4 0 l 2 3.46 l -2 3.46 l -4 0 l -2 -3.46 l 2 -3.46" fill="lightgrey"/>
  <rect width="2" height="7" x="10" y="45" fill="darkgrey"/>

  <path d="M 47 20 l 4 0 l 2 3.46 l -2 3.46 l -4 0 l -2 -3.46 l 2 -3.46" fill="lightgrey"/>
  <rect width="2" height="7" x="48" y="20" fill="darkgrey"/>

  <path d="M 47 33 l 4 0 l 2 3.46 l -2 3.46 l -4 0 l -2 -3.46 l 2 -3.46" fill="lightgrey"/>
  <rect width="2" height="7" x="48" y="33" fill="darkgrey"/>

  <path d="M 47 45 l 4 0 l 2 3.46 l -2 3.46 l -4 0 l -2 -3.46 l 2 -3.46" fill="lightgrey"/>
  <rect width="2" height="7" x="48" y="45" fill="darkgrey"/>

</svg>
