<?xml version="1.0" encoding="utf-8"?>
<svg xmlns="http://www.w3.org/2000/svg" version="1.1" width="60" height="60">
  <title>Wall Cooler</title>
  <desc>
    Wall Cooler diagram.
  </desc>

  <!-- Base structure -->
  <rect width="22" height="30" x="19" y="30" rx="2" ry="2" fill="grey"/>
  <rect width="11" height="11" x="24.5" y="0" fill="lightgrey"/>
  <path d="M 30 1 l -3 5 h 3 v 4 l 3 -5 h -3 v -4" fill="yellow"/>
  <rect width="55" height="55" x="2.5" y="2.5" rx="5" ry="5" fill="whitesmoke"/>

  <!-- Floppy slot start -->
  <line x1="10" y1="12" x2="20" y2="12" stroke="black" stroke-width="2"/>
  <circle cx="15" cy="12" r="2" fill="black"/>
  <!-- Floppy slot end -->

  <!-- Buttons start -->
  <rect x="38" y="9" width="14" height="7" stroke="black" fill="transparent"/>
  <rect x="38" y="9" width="7" height="7" fill="darkred"/>
  <rect x="45" y="9" width="7" height="7" fill="red"/>
  <!-- Buttons end -->

  <!-- Ventilation start -->
  <circle cx="30" cy="35" r="15" fill="#202020" stroke="grey" stroke-width="1"/>
  <path d="M 32 35 l 1 -10 q 0 -3 -3 -3 q -3 0 -3 3 l 1 10" fill="#303030" transform="rotate(45 30,35)"/>
  <path d="M 32 35 l 1 -10 q 0 -3 -3 -3 q -3 0 -3 3" fill="transparent" stroke="#aaaaaa" stroke-width="0.3" transform="rotate(45 30,35)"/>
  <path d="M 32 35 l 1 -10 q 0 -3 -3 -3 q -3 0 -3 3 l 1 10" fill="#303030" transform="rotate(135 30,35)"/>
  <path d="M 32 35 l 1 -10 q 0 -3 -3 -3 q -3 0 -3 3" fill="transparent" stroke="#aaaaaa" stroke-width="0.3" transform="rotate(135 30,35)"/>
  <path d="M 32 35 l 1 -10 q 0 -3 -3 -3 q -3 0 -3 3 l 1 10" fill="#303030" transform="rotate(-45 30,35)"/>
  <path d="M 32 35 l 1 -10 q 0 -3 -3 -3 q -3 0 -3 3" fill="transparent" stroke="#aaaaaa" stroke-width="0.3" transform="rotate(-45 30,35)"/>
  <path d="M 32 35 l 1 -10 q 0 -3 -3 -3 q -3 0 -3 3 l 1 10" fill="#303030" transform="rotate(-135 30,35)"/>
  <path d="M 32 35 l 1 -10 q 0 -3 -3 -3 q -3 0 -3 3" fill="transparent" stroke="#aaaaaa" stroke-width="0.3" transform="rotate(-135 30,35)"/>

  <circle cx="30" cy="35" r="3" fill="grey"/>
  <circle cx="30" cy="35" r="2" fill="darkgrey"/>
  <circle cx="30" cy="35" r="1" fill="whitesmoke"/>

  <g stroke="whitesmoke" stroke-width="0.5">
    <line x1="21" y1="23.33" x2="39" y2="23.33"/>
    <line x1="18" y1="26.66" x2="42" y2="26.66"/>
    <line x1="16" y1="30" x2="44" y2="30"/>
    <line x1="15" y1="33.33" x2="45" y2="33.33"/>
    <line x1="15" y1="36.66" x2="45" y2="36.66"/>
    <line x1="16" y1="40" x2="44" y2="40"/>
    <line x1="18" y1="43.33" x2="42" y2="43.33"/>
    <line x1="21" y1="46.66" x2="39" y2="46.66"/>
  </g>
  <!-- Ventilation end -->

</svg>
