<?xml version="1.0" encoding="utf-8"?>
<svg xmlns="http://www.w3.org/2000/svg" version="1.1" width="1020" height="780">
  <title>Atmospheric</title>
  <desc>
    Atmospheric diagram.
  </desc>

  <!-- Grid start -->
  <line x1="0" y1="30" x2="1020" y2="30" stroke="grey"/>
  <line x1="0" y1="270" x2="1020" y2="270" stroke="grey"/>
  <line x1="0" y1="510" x2="1020" y2="510" stroke="grey"/>
  <line x1="0" y1="750" x2="1020" y2="750" stroke="grey"/>

  <line x1="30" y1="0" x2="30" y2="1020" stroke="grey"/>
  <line x1="270" y1="0" x2="270" y2="1020" stroke="grey"/>
  <line x1="510" y1="0" x2="510" y2="1020" stroke="grey"/>
  <line x1="750" y1="0" x2="750" y2="1020" stroke="grey"/>
  <line x1="990" y1="0" x2="990" y2="1020" stroke="grey"/>
  <!-- Grid end -->

  <defs>
    <g id="BigTank">
      <rect width="22" height="30" x="199" y="0" rx="2" ry="2" fill="grey"/>
      <rect width="13" height="13" x="407" y="202.5" fill="lightgrey"/>
      <circle cx="210" cy="210" r="204" fill="orange" stroke="darkorange" stroke-width="2"/>
    </g>
    <g id="Filtration">
      <!-- Connectors start -->
      <rect width="13" height="13" x="23.5" y="0" fill="lightgrey"/>
      <rect width="13" height="13" x="83.5" y="0" fill="lightgrey"/>
      <!-- Connectors end -->

      <!-- Structure start -->
      <rect width="120" height="22" x="0" y="19" rx="2" ry="2" fill="grey"/>
      <rect width="22" height="30" x="19" y="30" rx="2" ry="2" fill="grey"/>
      <rect width="116" height="56" x="2" y="2" rx="5" ry="5" fill="whitesmoke"/>
      <!-- Structure end -->
    </g>
    <g id="VolumPump">
      <!-- Base structure start -->
      <path d="M 30 50 L 60 35 L 60 25 L 30 10" fill="grey"/>
      <rect width="20" height="60" x="20" y="0" fill="yellow"/>
      <rect width="40" height="42" x="10" y="9" fill="grey"/>
      <rect width="40" height="40" x="10" y="10" fill="yellow"/>
      <!-- Base structure end -->

      <!-- Screws start -->
      <path d="M 12 11 h 2 l 1 1.73 l -1 1.73 h -2 l -1 -1.73 l 1 -1.73" fill="grey"/>
      <path d="M 46 11 h 2 l 1 1.73 l -1 1.73 h -2 l -1 -1.73 l 1 -1.73" fill="grey"/>
      <path d="M 12 45.54 h 2 l 1 1.73 l -1 1.73 h -2 l -1 -1.73 l 1 -1.73" fill="grey"/>
      <path d="M 46 45.54 h 2 l 1 1.73 l -1 1.73 h -2 l -1 -1.73 l 1 -1.73" fill="grey"/>
      <!-- Screws end -->

      <!-- Light start -->
      <path d="M 20 18 l 2 -2 h 6 l 2 2 v 10 l -2 2 h -6 l -2 -2 v 10" fill="grey"/>
      <path d="M 21.5 19 l 1.5 -1.5 h 4 l 1.5 1.5 v 8 l -1.5 1.5 h -4 l -1.5 -1.5 v 8" fill="green"/>
      <!-- Light end -->

      <!-- Valve start -->
      <circle cx="25" cy="40" r="8" fill="grey" stroke="#656565" stroke-width="0.5"/>
      <circle cx="25" cy="40" r="6" fill="#505050"/>
      <rect width="2" height="15" x="24" y="32.5" fill="grey"/>
      <rect width="2" height="15" x="24" y="32.5" transform="rotate(90 25,40)" fill="grey"/>
      <circle cx="25" cy="40" r="2" fill="darkgrey"/>
      <circle cx="25" cy="40" r="6" fill="transparent" stroke="#656565" stroke-width="0.5"/>
      <!-- Valve end -->

      <!-- Arrow start -->
      <path d="M 40 20 h 4 l -4 -6 l -4 6 h 4" fill="red"/>
      <rect width="5" height="6" x="37.5" y="20" fill="red"/>
      <rect width="5" height="6" x="37.5" y="28" fill="red"/>
      <rect width="5" height="4" x="37.5" y="36" fill="red"/>
      <rect width="5" height="2" x="37.5" y="42" fill="red"/>
      <!-- Arrow end -->
    </g>
    <g id="GasMixer">
      <!-- Base structure start -->
      <path d="M 30 50 L 60 35 L 60 25 L 30 10" fill="grey"/>
      <rect width="20" height="60" x="20" y="0" fill="yellow"/>
      <rect width="30" height="20" x="0" y="20" fill="yellow"/>
      <rect width="41" height="42" x="9" y="9" fill="grey"/>
      <rect width="40" height="40" x="10" y="10" fill="yellow"/>
      <!-- Base structure end -->

      <!-- Screws start -->
      <path d="M 12 11 h 2 l 1 1.73 l -1 1.73 h -2 l -1 -1.73 l 1 -1.73" fill="grey"/>
      <path d="M 46 11 h 2 l 1 1.73 l -1 1.73 h -2 l -1 -1.73 l 1 -1.73" fill="grey"/>
      <path d="M 12 45.54 h 2 l 1 1.73 l -1 1.73 h -2 l -1 -1.73 l 1 -1.73" fill="grey"/>
      <path d="M 46 45.54 h 2 l 1 1.73 l -1 1.73 h -2 l -1 -1.73 l 1 -1.73" fill="grey"/>
      <!-- Screws end -->

      <!-- Light start -->
      <path d="M 33 18 l 2 -2 h 8 l 2 2 v 10 l -2 2 h -8 l -2 -2 v 10" fill="grey"/>
      <path d="M 34.5 19 l 1.5 -1.5 h 6 l 1.5 1.5 v 8 l -1.5 1.5 h -6 l -1.5 -1.5 v 8" fill="green"/>
      <!-- Light end -->

      <!-- Valve start -->
      <circle cx="38" cy="40" r="8" fill="grey" stroke="#656565" stroke-width="0.5"/>
      <circle cx="38" cy="40" r="6" fill="#505050"/>
      <rect width="2" height="15" x="37" y="32.5" fill="grey"/>
      <rect width="2" height="15" x="37" y="32.5" transform="rotate(90 38,40)" fill="grey"/>
      <circle cx="38" cy="40" r="2" fill="darkgrey"/>
      <circle cx="38" cy="40" r="6" fill="transparent" stroke="#656565" stroke-width="0.5"/>
      <!-- Valve end -->

      <!-- Arrow start -->
      <rect width="5" height="5" x="22.5" y="27.5" fill="green"/>
      <rect width="5" height="7.5" x="22.5" y="17" fill="green"/>
      <rect width="5" height="7.5" x="22.5" y="39" fill="green"/>
      <rect width="5" height="5" x="11" y="27.5" fill="green"/>
      <path d="M 25 12 l -4 6 h 8 l -4 -6" fill="green"/>
      <path d="M 25 34 l -4 6 h 8 l -4 -6" fill="green"/>
      <path d="M 21 30 l -6 -4 v 8 l 6 -4" fill="green"/>
      <!-- Arrow end -->
    </g>
    <g id="ICHousing">
      <!-- Background -->
      <rect width="60" height="60" x="0" y="0" fill="#505050"/>

      <!-- External pins start -->
      <rect width="4" height="57" x="7" y="1.5" fill="whitesmoke"/>
      <rect width="4" height="57" x="13" y="1.5" fill="whitesmoke"/>
      <rect width="4" height="57" x="19" y="1.5" fill="whitesmoke"/>
      <rect width="4" height="57" x="25" y="1.5" fill="whitesmoke"/>
      <rect width="4" height="57" x="31" y="1.5" fill="whitesmoke"/>
      <rect width="4" height="57" x="37" y="1.5" fill="whitesmoke"/>
      <rect width="4" height="57" x="43" y="1.5" fill="whitesmoke"/>
      <rect width="4" height="57" x="49" y="1.5" fill="whitesmoke"/>

      <rect width="4" height="55" x="7" y="2.5" fill="white"/>
      <rect width="4" height="55" x="13" y="2.5" fill="white"/>
      <rect width="4" height="55" x="19" y="2.5" fill="white"/>
      <rect width="4" height="55" x="25" y="2.5" fill="white"/>
      <rect width="4" height="55" x="31" y="2.5" fill="white"/>
      <rect width="4" height="55" x="37" y="2.5" fill="white"/>
      <rect width="4" height="55" x="43" y="2.5" fill="white"/>
      <rect width="4" height="55" x="49" y="2.5" fill="white"/>

      <rect width="57" height="4" x="1.5" y="7" fill="whitesmoke"/>
      <rect width="57" height="4" x="1.5" y="13" fill="whitesmoke"/>
      <rect width="57" height="4" x="1.5" y="19" fill="whitesmoke"/>
      <rect width="57" height="4" x="1.5" y="25" fill="whitesmoke"/>
      <rect width="57" height="4" x="1.5" y="31" fill="whitesmoke"/>
      <rect width="57" height="4" x="1.5" y="37" fill="whitesmoke"/>
      <rect width="57" height="4" x="1.5" y="43" fill="whitesmoke"/>
      <rect width="57" height="4" x="1.5" y="49" fill="whitesmoke"/>

      <rect width="55" height="4" x="2.5" y="7" fill="white"/>
      <rect width="55" height="4" x="2.5" y="13" fill="white"/>
      <rect width="55" height="4" x="2.5" y="19" fill="white"/>
      <rect width="55" height="4" x="2.5" y="25" fill="white"/>
      <rect width="55" height="4" x="2.5" y="31" fill="white"/>
      <rect width="55" height="4" x="2.5" y="37" fill="white"/>
      <rect width="55" height="4" x="2.5" y="43" fill="white"/>
      <rect width="55" height="4" x="2.5" y="49" fill="white"/>
      <!-- External pins end -->

      <!-- Main chip -->
      <rect width="50" height="50" x="5" y="5" fill="grey"/>

      <!-- Head -->
      <circle cx="13" cy="11" r="2" fill="red"/>
      <text x="20" y="10" font-size="5" fill="white">CIRCUIT</text>
      <text x="19" y="15" font-size="5" fill="white">HOUSING</text>

      <!-- Device connectors start -->
      <path d="M 9 20 l 4 0 l 2 3.46 l -2 3.46 l -4 0 l -2 -3.46 l 2 -3.46" fill="lightgrey"/>
      <rect width="2" height="7" x="10" y="20" fill="darkgrey"/>
      <text x="9.5" y="19" font-size="3" fill="white" font-family="monospace">D0</text>

      <path d="M 9 33 l 4 0 l 2 3.46 l -2 3.46 l -4 0 l -2 -3.46 l 2 -3.46" fill="lightgrey"/>
      <rect width="2" height="7" x="10" y="33" fill="darkgrey"/>
      <text x="9.5" y="32" font-size="3" fill="white" font-family="monospace">D1</text>

      <path d="M 9 46 l 4 0 l 2 3.46 l -2 3.46 l -4 0 l -2 -3.46 l 2 -3.46" fill="lightgrey"/>
      <rect width="2" height="7" x="10" y="46" fill="darkgrey"/>
      <text x="9.5" y="45" font-size="3" fill="white" font-family="monospace">D2</text>

      <path d="M 47 20 l 4 0 l 2 3.46 l -2 3.46 l -4 0 l -2 -3.46 l 2 -3.46" fill="lightgrey"/>
      <rect width="2" height="7" x="48" y="20" fill="darkgrey"/>
      <text x="47.5" y="19" font-size="3" fill="white" font-family="monospace">D3</text>

      <path d="M 47 33 l 4 0 l 2 3.46 l -2 3.46 l -4 0 l -2 -3.46 l 2 -3.46" fill="lightgrey"/>
      <rect width="2" height="7" x="48" y="33" fill="darkgrey"/>
      <text x="47.5" y="32" font-size="3" fill="white" font-family="monospace">D4</text>

      <path d="M 47 46 l 4 0 l 2 3.46 l -2 3.46 l -4 0 l -2 -3.46 l 2 -3.46" fill="lightgrey"/>
      <rect width="2" height="7" x="48" y="46" fill="darkgrey"/>
      <text x="47.5" y="45" font-size="3" fill="white" font-family="monospace">D5</text>
      <!-- Device connectors end -->

      <!-- IC Housing -->
      <rect width="26" height="33" x="17" y="17" fill="black"/>

      <!-- External IC pins start -->
      <rect width="20" height="2" x="20" y="22" fill="white"/>
      <rect width="20" height="2" x="20" y="29" fill="white"/>
      <rect width="20" height="2" x="20" y="37" fill="white"/>
      <rect width="20" height="2" x="20" y="44" fill="white"/>
      <!-- External IC pins end -->

      <!-- IC chip start -->
      <rect width="15" height="30" x="22.5" y="18.5" fill="grey"/>
      <path d="M 26.5 18.5 q 0 3.5 3.5 3.5 q 3.5 0 3.5 -3.5" fill="#505050"/>
      <path d="M 26.5 48.5 q 0 -3.5 3.5 -3.5 q 3.5 0 3.5 3.5" fill="#505050"/>
      <text x="28" y="40" transform="rotate(-90 28,40)" font-size="3" fill="white" font-family="monospace">RECATEK</text>
      <text x="32" y="40" transform="rotate(-90 32,40)" font-size="4" fill="white" font-family="monospace">IC</text>
      <text x="32" y="35" transform="rotate(-90 32,35)" font-size="4" fill="darkred" font-family="monospace">10</text>
      <!-- IC chip end -->
    </g>
    <g id="Lever">
      <!-- Base start -->
      <rect width="30" height="60" x="15" y="0" fill="grey"/>
      <rect width="26" height="46" x="17" y="7" fill="lightgrey"/>
      <rect width="20" height="25" x="20" y="10" fill="grey"/>
      <rect width="3" height="40" x="20" y="10" fill="grey"/>
      <rect width="3" height="40" x="37" y="10" fill="grey"/>
      <!-- Base end -->

      <!-- Lever start -->
      <rect width="2.5" height="37.5" x="20.5" y="12.5" fill="darkgrey"/>
      <rect width="2.5" height="37.5" x="37" y="12.5" fill="darkgrey"/>
      <rect width="14" height="4" x="23" y="12.5" fill="black"/>
      <!-- Lever end -->

      <!-- Strips start -->
      <path d="M 23 12.5 l 3.5 0 l -3.5 4" fill="yellow"/>
      <path d="M 26.5 16.5 l 3.5 0 l 3.5 -4 l -3.5 0" fill="yellow"/>
      <path d="M 37 12.5 l 0 4 l -3.5 0 l 3.5 -4" fill="yellow"/>
      <!-- Strips end -->
    </g>
  </defs>

  <!-- Cables placement start -->
  <g stroke="red" stroke-width="5" fill="transparent">
    <path d="M 60 270 q -30 0 -30 30 v 180 q 0 30 30 30 h 540 q 30 0 30 30 v 60 q 0 30 -30 30 q -30 0 -30 30"/>
    <path d="M 540 270 q -30 0 -30 30 v 180 q 0 30 -30 30 q 30 0 30 30 q 0 -30 30 -30 q -30 0 -30 -30 m 30 30 q 30 0 30 30 q 0 -30 30 -30"/>
    <path d="M 450 720 q 0 30 -30 30 h -240 q -30 0 -30 -30 v -60 q 0 -30 30 -30 h 120 q 30 0 30 30 v 60 q 0 30 30 30"/>
    <path d="M 300 630 q -30 0 -30 30 q 0 -30 -30 -30 q -30 0 -30 30 q 0 -30 -30 -30 m -30 30 q 0 30 -30 30 q 30 0 30 30 m 30 30 q 30 0 30 -30 q 0 30 30 30 q 30 0 30 -30 q 0 30 30 30 q 30 0 30 -30"/>
    <path d="M 150 660 v -60 q 0 30 30 30 m -30 -30 v -60 q 0 -30 30 -30 m -30 30 q 0 -30 -30 -30"/>
  </g>
  <!-- Cables placement end -->

  <!-- Pipes placement start-->
  <path d="M 500 600 v 80 h -30 v 20 h 30 v 80 h 20 v -80 h 30 v -20 h -30 v -80 h -20" fill="yellow"/>
  <path d="M 740 480 v 80 h -140 v 20 h 140 v 100 h -140 v 20 h 140 v 80 h 20 v -300" fill="brown"/>
  <path d="M 260 480 v 80 h -260 v 20 h 80 v 80 h 20 v -80 h 280 v 80 q 0 40 40 40 v -20 q -20 0 -20 -20 v -80 h 80 v -20 h -200 v -80 h -20" fill="khaki"/>
  <path d="M 80 720 v 60 h 20 v -60 h -20" fill="white" stroke="black"/>
  <path d="M 60 680 q -40 0 -40 40 v 60 h 20 v -60 q 0 -20 20 -20 v -20" fill="green"/>
  <!-- Pipes placement end-->

  <!-- Devices placement start -->
  <use href="#BigTank" transform="rotate(180 270,270)" x="60" y="60"/>
  <use href="#BigTank" transform="rotate(180 750,270)" x="540" y="60"/>
  <use href="#Filtration" transform="rotate(0 510,570)" x="480" y="540"/>

  <use href="#VolumPump" transform="rotate(90 450,690)" x="420" y="660"/>
  <use href="#VolumPump" transform="rotate(-90 570,690)" x="540" y="660"/>
  <use href="#GasMixer" transform="rotate(0 90,690)" x="60" y="660"/>

  <use href="#Lever" transform="rotate(0 210,690)" x="180" y="660"/>
  <use href="#ICHousing" transform="rotate(0 270,690)" x="240" y="660"/>
  <!-- Devices placement end -->
  
  <!-- Labels placement start -->
  <g font-size="10">
    <text x="730" y="270">Waste Tank</text>
    <text x="230" y="270">Atmospheric Tank</text>
    <text x="560" y="720">Waste</text>
    <text x="550" y="730">Dump Pump</text>
    <text x="425" y="650">Atmospheric</text>
    <text x="425" y="660">Dump Pump</text>
    <text x="550" y="610">Filtration</text>
    <text x="70" y="655">Gas Mixer</text>
    <text x="185" y="665" transform="rotate(-90 210,690)">Dump Lever</text>
    <text x="230" y="655" transform="rotate(-90 270,690)">Atmospheric Control</text>
  </g>
  <!-- Labels placement end -->

</svg>
